<?xml version="1.0" encoding="UTF-8" standalone="no"?>
<svg
   xmlns:dc="http://purl.org/dc/elements/1.1/"
   xmlns:cc="http://creativecommons.org/ns#"
   xmlns:rdf="http://www.w3.org/1999/02/22-rdf-syntax-ns#"
   xmlns:svg="http://www.w3.org/2000/svg"
   xmlns="http://www.w3.org/2000/svg"
   width="232.71666mm"
   height="284.22223mm"
   viewBox="0 0 232.71666 284.22223"
   version="1.1"
   id="svg198">
  <defs
     id="defs192" />
  <metadata
     id="metadata195">
    <rdf:RDF>
      <cc:Work
         rdf:about="">
        <dc:format>image/svg+xml</dc:format>
        <dc:type
           rdf:resource="http://purl.org/dc/dcmitype/StillImage" />
        <dc:title></dc:title>
      </cc:Work>
    </rdf:RDF>
  </metadata>
  <g
     id="layer1"
     transform="translate(-1.1166712,-1.293064)">
    <g
       id="g226"
       transform="matrix(0.35277777,0,0,-0.35277777,2.8222267,284.51528)">
      <g
         id="g228" />
      <g
         id="g230">
        <path
           d="m 208,69 c 0,1 -3,2 -4,2 -1,0 -3,-1 -3,-2 0,-1 0,-2 3,-2 4,0 4,0 4,2 z m 212,150 c 0,1 -1,2 -3,2 -1,0 -2,-1 -2,-2 0,-2 1,-3 2,-3 2,0 3,1 3,3 z m -8,4 c 0,1 0,2 -1,2 -4,0 -6,-4 -6,-6 h 3 c 2,0 4,1 4,4 z m 0,76 c 0,2 2,6 5,6 0,0 -1,-1 -1,-3 0,-1 0,-3 3,-3 0,-1 -3,-3 -5,-3 -1,0 -2,1 -2,3 z m -52,114 c 3,-3 8,-13 8,-15 0,-1 -1,-2 -2,-2 -2,0 -5,5 -9,12 -1,0 -1,0 -1,-1 0,-2 2,-7 5,-13 6,-10 20,-24 28,-27 11,-3 30,-5 48,-5 19,0 37,2 44,5 10,4 17,14 19,29 l 1,9 h -1 l -4,-10 c -5,-13 -15,-21 -26,-24 -8,-2 -14,-3 -14,-2 0,1 1,1 3,2 7,3 -11,12 -11,15 0,1 2,3 7,3 0,3 -4,4 -4,7 h 2 c 0,3 -4,4 -4,7 0,2 1,3 4,6 l 5,5 c -4,0 -15,-2 -20,-4 -2,0 -3,0 -3,2 0,2 -7,2 -15,2 -20,0 -23,1 -23,3 0,2 -6,2 -12,2 -6,0 -12,1 -18,1 -5,0 -7,-1 -7,-4 0,-2 0,-3 0,-3 z M 228,371 c 22,6 46,46 49,80 1,9 1,12 0,13 0,0 -1,-2 -3,-5 -4,-6 -6,-6 -11,-6 -5,0 -7,1 -8,1 -1,0 -2,-1 -2,-2 0,-2 -1,-4 -4,-4 -3,0 -9,-1 -12,-2 -3,-1 -5,-1 -6,-1 -2,0 -3,1 -4,4 l -1,6 -4,-5 c -4,-6 -10,-7 -24,-3 -8,3 -9,4 -9,10 0,6 -2,8 -5,8 -3,0 -8,-2 -8,-4 0,-1 1,-1 2,-1 2,0 3,-2 3,-5 0,-3 -2,-5 -4,-5 -2,0 -4,-1 -6,-4 -2,-3 -11,-9 -16,-9 -2,0 -3,1 -3,4 0,1 1,4 5,15 5,14 24,29 53,35 4,1 5,2 5,4 0,2 3,2 8,2 6,0 9,0 9,1 0,2 -21,8 -28,8 -3,0 -7,1 -9,3 -3,3 -8,4 -15,4 -7,0 -15,0 -31,-3 -16,-3 -26,-8 -30,-16 -4,-8 -6,-29 -6,-49 0,-12 1,-24 2,-32 5,-30 14,-40 40,-45 5,-1 13,-1 22,-1 19,0 42,1 51,4 z m -100,38 c 0,1 -3,6 -6,11 -5,8 -5,19 -5,33 0,14 2,28 4,33 2,5 12,17 17,17 1,0 2,-1 2,-2 0,-2 0,-10 -2,-18 -2,-10 -3,-24 -3,-31 0,-11 -5,-44 -7,-44 z m 69,15 c -4,0 -18,2 -18,5 0,1 4,1 6,1 8,0 10,0 22,3 12,3 21,3 29,3 -1,-1 -8,-4 -15,-7 -8,-3 -16,-5 -24,-5 z M 26,393 c -3,5 -3,3 -1,-3 1,-2 2,-3 3,-3 0,1 0,3 -2,6 z m 0,11 c 0,1 -1,3 -3,3 -1,0 -2,-2 -2,-3 0,-1 1,-3 2,-3 2,0 3,2 3,3 z m -3,25 v 17 l -3,-13 c -2,-12 -1,-21 2,-21 1,0 1,7 1,17 z m 366,26 c 0,1 -1,2 -4,2 -2,0 -3,-1 -3,-2 0,-2 1,-3 3,-3 3,0 4,1 4,3 z M 94,497 c 3,15 1,17 -4,7 -3,-8 -4,-19 -1,-22 2,-2 2,-2 5,15 z m 289,-12 c 5,0 47,4 47,7 0,3 -8,4 -15,4 h -19 c -10,0 -23,-4 -23,-6 0,-1 0,-2 2,-3 2,-1 4,-2 8,-2 z m 4,20 h -6 c -2,-1 0,-2 3,-2 4,0 5,1 3,2 z m -361,3 c 1,0 7,6 7,11 0,1 0,1 -1,1 -1,0 -7,-9 -7,-11 0,-1 0,-1 1,-1 z m 602,20 c 0,6 -2,8 -8,8 z m 5,51 c 0,2 -1,3 -2,3 -2,0 -3,-1 -3,-3 0,-1 1,-2 3,-2 1,0 2,1 2,2 z m -531,39 c 2,2 2,4 1,4 -1,0 -3,-2 -5,-6 -3,-7 0,-6 4,2 z m 530,5 -3,10 -9,-3 z M 119,187 c -6,4 -17,14 -24,23 -8,9 -15,15 -16,15 -1,0 -1,3 -1,6 0,3 1,8 1,9 h -1 c -3,-3 -11,-8 -13,-8 -1,0 -1,0 -1,1 0,1 2,6 5,11 3,6 4,12 4,15 l -2,11 c -3,-7 -5,-9 -6,-10 0,5 2,11 2,13 0,4 -2,5 -8,8 -5,2 -7,3 -7,5 0,1 2,4 4,6 l -3,-1 -6,5 2,1 2,5 c -1,0 -2,3 -2,5 0,3 1,7 2,7 2,0 3,-1 3,-2 0,-2 2,-2 5,-2 h 6 c 4,3 9,6 12,6 3,0 5,-2 7,-4 5,-6 10,-16 10,-26 v -8 c 0,-6 3,-12 6,-15 4,-5 7,-14 9,-23 2,-9 7,-26 12,-38 l 8,-22 c 0,0 -5,3 -10,7 z M 66,314 c 3,6 7,14 10,14 0,-8 -6,-12 -10,-14 z m 411,409 c 3,0 5,2 5,6 0,3 -2,5 -5,5 -4,0 -6,-2 -6,-5 0,-4 2,-6 6,-6 z m 139,-89 c 4,0 7,1 7,2 0,1 -3,2 -7,2 -4,0 -7,-1 -7,-2 0,-1 3,-2 7,-2 z m -4,-60 c 2,0 3,2 3,4 0,1 -1,3 -3,3 -2,0 -3,-2 -3,-3 0,-2 1,-4 3,-4 z M 501,187 c 2,0 3,6 3,13 0,7 -1,13 -3,13 -2,0 -3,-6 -3,-13 0,-7 1,-13 3,-13 z M 228,40 c 2,0 3,1 3,3 0,2 -1,3 -3,3 -2,0 -3,-1 -3,-3 0,-2 1,-3 3,-3 z m -2,9 c 2,0 4,2 4,5 0,3 -2,5 -4,5 -3,0 -5,-2 -5,-5 0,-3 2,-5 5,-5 z m -12,9 c 3,0 5,2 5,4 0,2 -2,4 -5,4 -3,0 -5,-2 -5,-4 0,-2 2,-4 5,-4 z m -99,578 c 2,0 3,1 3,3 0,2 -1,3 -3,3 -2,0 -3,-1 -3,-3 0,-2 1,-3 3,-3 z m -6,-8 c 2,1 3,3 3,4 0,1 -1,1 -3,0 -2,-1 -3,-3 -3,-4 0,-1 1,-1 3,0 z m 10,-20 c 2,0 4,2 4,4 0,2 -2,4 -4,4 -2,0 -4,-2 -4,-4 0,-2 2,-4 4,-4 z m 38,47 c -9,-7 -21,-13 -33,-18 4,7 15,18 25,18 z m 70,-133 c 5,0 5,5 10,5 2,0 5,-1 10,-4 6,-4 15,-7 19,-8 8,-2 22,-14 22,-23 l 14,-6 h 11 c 5,0 13,3 16,6 l 7,6 c 1,6 5,8 33,14 l 16,4 -13,-1 h -12 v 1 c 7,3 23,5 41,6 l 15,2 10,2 h 18 v 2 c -3,0 -9,5 -9,7 l -59,81 c 0,8 0,10 -6,17 l -5,6 -3,9 c 0,6 -4,12 -4,14 h 3 c 0,4 -20,24 -24,24 l -9,6 c -3,4 -7,7 -8,7 -1,0 -4,2 -7,5 -7,6 -15,10 -20,10 l -10,1 c -1,0 -4,1 -6,3 l -17,1 c -4,1 -8,1 -11,1 l -9,2 -10,-3 c -1,-5 -10,-9 -17,-9 -2,0 -5,1 -6,2 l -2,-1 c 0,-5 0,-6 -6,-8 -5,-2 -7,-4 -7,-6 0,-3 -1,-5 -5,-6 -3,-1 -11,-7 -17,-14 -6,-6 -12,-11 -14,-11 -2,0 -8,-7 -10,-7 l -11,3 33,32 h 2 l -3,13 c 0,18 24,48 33,54 3,2 24,22 32,25 11,4 36,14 47,14 4,0 7,-1 12,-2 7,-2 22,-3 33,-3 17,0 34,0 50,-5 l 32,-10 32,-18 c 20,-5 42,-17 61,-37 l 26,-17 v -5 c 13,0 46,11 50,15 l 3,3 3,-4 4,-7 -31,-19 7,-7 22,-10 21,6 -10,-17 c 0,-12 16,-19 28,-19 l 7,3 v -3 c 0,-3 1,-8 4,-11 3,-3 9,-12 9,-16 h -5 l 4,-9 c 3,-6 6,-14 6,-19 l 5,-12 h -1 c -4,0 -7,-8 -7,-12 l 3,-6 c 0,-4 -5,-14 -9,-15 l -4,-3 c 6,0 13,-13 13,-23 l -1,-11 c -4,0 -8,4 -8,8 0,2 -2,6 -4,6 v -14 l 6,-1 -4,-5 7,-21 -2,-4 8,-9 -20,-34 v -16 h -3 l 2,-8 -4,-14 -6,9 -14,-34 h -9 c 0,4 -2,12 -9,12 -4,0 -7,-3 -7,-8 0,-5 16,-23 16,-26 l -19,7 13,-21 -31,-2 3,-12 -9,-10 2,-15 17,-3 6,12 c 6,0 10,-13 10,-19 0,-10 -6,-19 -6,-29 0,-12 -21,-45 -21,-45 l -22,-17 c -1,0 -3,1 -5,2 -4,1 -11,6 -17,10 l -9,7 5,-37 -17,-22 6,-11 -28,4 -4,-37 c 0,-7 2,-12 4,-19 3,-9 5,-22 5,-37 L 476,0 H 356 V 10 H 236 v 15 l -41,45 3,22 5,-3 8,-12 5,12 27,-12 5,16 22,6 36,5 h 2 l 9,2 27,10 12,10 9,14 -4,10 c -13,9 -41,14 -58,15 l -31,7 -20,20 v 7 l 42,3 c 36,3 47,5 58,14 l -3,12 -131,9 c -3,1 -7,0 -9,-2 -2,-2 -4,-2 -6,-2 -7,0 -14,4 -14,12 0,12 12,17 16,17 4,0 7,-3 9,-7 2,-5 7,-8 15,-8 6,0 13,2 21,4 8,3 13,4 17,4 4,0 7,-1 13,-2 8,-2 15,-4 19,-4 5,0 33,12 33,15 0,2 -4,3 -7,3 -3,0 -8,1 -11,3 l -5,3 -13,-3 c -2,0 -12,0 -12,14 1,10 1,10 -13,18 -15,7 -23,15 -23,26 0,1 6,2 11,2 7,0 16,-1 22,-3 4,-1 6,-2 8,-2 3,0 5,1 8,3 l 47,21 c 5,-6 8,-11 14,-11 5,0 11,7 11,11 0,2 -1,6 -5,11 -4,7 -8,8 -15,8 -6,0 -8,1 -8,6 0,6 8,7 8,12 0,3 -1,6 -4,9 -2,2 -4,5 -4,8 h -4 c -1,0 -6,13 -6,24 0,22 -5,30 -20,30 -12,0 -17,-3 -21,-13 -16,-40 -30,-65 -58,-94 0,-3 -31,-8 -53,-8 h -3 v 1 l 10,4 7,3 29,13 h -28 c -45,0 -75,9 -83,23 -2,4 -5,15 -7,24 -1,9 -4,17 -5,17 -2,0 -5,-30 -5,-47 v -9 l 3,-5 v -6 -5 l 4,-8 v -3 c 0,-3 -1,-8 -1,-19 l -19,9 c 0,3 -2,9 -11,17 -3,2 -30,36 -33,46 -2,7 -5,15 -6,15 -2,0 1,-28 4,-35 l 1,-3 -6,1 7,-18 h -2 l -5,4 -12,17 -5,8 c -4,7 -15,46 -15,63 0,4 1,7 2,8 2,1 7,13 12,26 6,20 21,47 24,47 l 2,-1 30,41 c -2,1 -3,3 -3,6 0,2 2,7 3,10 l 2,6 10,5 c 4,3 5,5 5,7 0,3 -3,4 -3,6 l 21,21 c 3,3 6,5 7,5 2,0 4,-3 4,-5 0,-1 0,-3 -1,-4 -6,-8 -20,-36 -20,-40 h 2 l 22,37 11,3 c 0,8 5,11 13,11 0,-6 -4,-18 -12,-34 -6,-11 -10,-23 -10,-40 l -2,-12 -4,-18 -7,-20 h 12 c 6,0 16,2 31,4 10,2 30,3 45,3 13,0 20,1 33,1 z m -15,1 c 7,0 12,1 12,2 0,0 -5,1 -12,1 -7,0 -12,-1 -12,-1 0,-1 5,-2 12,-2 z m -22,2 c 6,0 10,1 10,2 0,0 -4,1 -10,1 -6,0 -10,-1 -10,-1 0,-1 4,-2 10,-2 z m 11,192 c 1,0 2,3 2,6 0,3 -1,6 -2,6 -1,0 -2,-3 -2,-6 0,-3 1,-6 2,-6 z m 129,23 c 1,0 1,2 1,4 0,2 0,4 -1,4 -1,0 -1,-2 -1,-4 0,-2 0,-4 1,-4 z m -120,-2 c 1,0 1,2 1,4 0,2 0,4 -1,4 -1,0 -1,-2 -1,-4 0,-2 0,-4 1,-4 z M 367,410 c 1,0 2,1 2,3 0,2 -1,3 -2,3 -2,0 -3,-1 -3,-3 0,-2 1,-3 3,-3 z m 69,-121 c 3,0 6,2 6,5 0,3 -3,5 -6,5 -4,0 -7,-2 -7,-5 0,-3 3,-5 7,-5 z m -12,0 11,18 c 0,2 -3,3 -6,3 -4,0 -6,2 -6,6 0,5 -3,8 -9,8 l -4,3 c -4,3 -11,3 -13,3 -1,0 -2,0 -2,-1 0,-3 1,-4 5,-9 3,-4 4,-8 4,-10 v -3 h -2 c -7,2 -11,2 -13,2 l -1,-1 v -10 l -1,-1 c -1,0 -2,-3 -2,-7 0,-4 1,-8 2,-12 l 2,-3 6,-2 c 0,0 1,0 1,0 1,0 1,2 1,4 l 11,-3 9,-7 v 5 c 2,0 4,3 4,7 0,3 -1,5 -3,8 -2,3 -2,4 -2,5 h 2 c 3,0 5,-1 6,-3 z M 75,269 c 1,0 2,1 2,4 0,2 -1,3 -2,3 -1,0 -2,-1 -2,-3 0,-3 1,-4 2,-4 z"
           style="fill:#000000;fill-opacity:1;fill-rule:nonzero;stroke:none"
           id="path232" />
      </g>
    </g>
  </g>
</svg>
